<?xml version="1.0" standalone="no"?>
<!DOCTYPE svg PUBLIC "-//W3C//DTD SVG 20010904//EN"
 "http://www.w3.org/TR/2001/REC-SVG-20010904/DTD/svg10.dtd">
<svg version="1.0" xmlns="http://www.w3.org/2000/svg"
 width="411.000000pt" height="411.000000pt" viewBox="0 0 411.000000 411.000000"
 preserveAspectRatio="xMidYMid meet">
<metadata>
Created by potrace 1.11, written by Peter Selinger 2001-2013
</metadata>
<g transform="translate(0.000000,411.000000) scale(0.100000,-0.100000)"
fill="#000000" stroke="none">
<path d="M2003 4103 c26 -2 68 -2 95 0 26 2 4 3 -48 3 -52 0 -74 -1 -47 -3z"/>
<path d="M1868 4093 c7 -3 16 -2 19 1 4 3 -2 6 -13 5 -11 0 -14 -3 -6 -6z"/>
<path d="M2218 4093 c7 -3 16 -2 19 1 4 3 -2 6 -13 5 -11 0 -14 -3 -6 -6z"/>
<path d="M1808 4083 c6 -2 18 -2 25 0 6 3 1 5 -13 5 -14 0 -19 -2 -12 -5z"/>
<path d="M2283 4080 c71 -22 67 -54 -9 -66 -52 -7 -74 -25 -74 -59 0 -33 37
-69 90 -90 62 -23 90 -51 90 -90 0 -38 -21 -59 -77 -76 -59 -17 -78 -41 -78
-99 0 -70 19 -97 98 -136 76 -39 107 -78 107 -134 0 -50 -23 -78 -92 -107 -71
-31 -88 -58 -88 -139 0 -83 27 -134 90 -168 109 -59 140 -103 140 -195 0 -72
-16 -95 -105 -143 -83 -46 -97 -76 -92 -193 5 -131 25 -169 120 -233 90 -61
111 -98 112 -192 0 -91 -24 -134 -106 -187 -90 -60 -115 -91 -129 -159 -15
-70 -8 -166 14 -199 9 -14 43 -38 75 -55 84 -42 104 -71 99 -141 -5 -69 -33
-111 -97 -144 -99 -50 -131 -95 -131 -188 0 -56 23 -91 74 -116 25 -11 50 -21
55 -21 18 0 51 -53 51 -82 0 -50 -30 -87 -97 -119 -79 -38 -103 -67 -103 -129
0 -55 14 -72 80 -95 57 -20 70 -32 70 -65 0 -34 -16 -49 -93 -80 -72 -30 -103
-68 -76 -96 9 -8 36 -18 60 -21 24 -3 49 -11 55 -18 7 -9 15 -10 25 -4 12 8
12 10 -1 19 -8 5 -27 10 -42 10 -43 0 -78 18 -78 39 0 25 14 35 82 61 62 23
98 59 98 97 0 40 -18 62 -63 73 -67 18 -87 35 -87 76 0 53 14 71 90 109 79 40
97 62 106 128 9 66 -8 101 -62 126 -24 12 -48 21 -52 21 -5 0 -19 12 -33 26
-19 20 -24 36 -23 73 1 63 27 99 101 139 101 53 123 92 123 212 0 81 -13 101
-91 141 -81 41 -101 73 -97 161 4 79 20 105 93 158 128 91 150 135 143 281 -5
107 -22 137 -114 199 -86 58 -114 106 -114 194 0 86 21 121 101 165 95 54 116
111 88 240 -14 66 -37 93 -118 141 -77 44 -102 75 -109 135 -7 66 17 101 93
135 35 16 68 38 74 49 18 32 13 122 -8 161 -13 26 -35 44 -85 68 -69 34 -106
75 -106 118 0 32 36 71 78 84 68 22 82 36 82 84 0 56 -25 88 -87 111 -75 28
-93 42 -93 75 0 34 7 39 74 54 41 9 52 16 54 34 3 18 -4 26 -32 37 -19 8 -43
15 -53 14 -11 0 -6 -4 10 -9z"/>
<path d="M1756 4067 c-33 -24 -16 -50 40 -63 66 -14 74 -20 74 -49 0 -31 -30
-59 -82 -74 -64 -20 -98 -60 -98 -115 0 -41 3 -48 32 -66 18 -11 44 -22 59
-25 56 -13 80 -70 52 -124 -13 -25 -37 -44 -88 -70 -80 -42 -105 -79 -107
-158 -2 -67 14 -90 87 -124 66 -32 95 -69 95 -120 0 -42 -38 -104 -80 -129
-83 -50 -104 -66 -122 -91 -41 -55 -51 -192 -18 -246 11 -18 41 -43 67 -57 26
-13 61 -38 78 -55 25 -27 30 -41 33 -96 6 -97 -25 -155 -119 -219 -96 -66
-112 -101 -107 -234 4 -127 20 -158 107 -215 36 -25 74 -53 83 -64 27 -30 48
-89 48 -135 0 -68 -26 -107 -98 -146 -77 -42 -96 -69 -96 -136 -1 -118 26
-165 126 -218 71 -38 98 -75 98 -136 0 -62 -14 -80 -86 -113 -35 -16 -68 -39
-75 -50 -15 -29 -7 -121 14 -153 10 -14 49 -42 87 -61 74 -37 90 -56 90 -104
0 -36 -30 -67 -74 -76 -51 -11 -76 -32 -76 -65 0 -62 34 -93 138 -125 25 -7
46 -40 38 -60 -3 -8 -22 -17 -43 -20 -69 -11 -83 -15 -83 -24 0 -5 7 -12 16
-15 8 -3 12 -2 9 4 -3 5 4 11 17 14 99 18 103 20 106 49 5 38 -10 53 -79 78
-85 31 -112 70 -79 112 11 14 39 29 65 36 58 15 79 45 73 106 -7 58 -18 69
-100 111 -74 37 -98 69 -98 127 0 41 24 65 102 100 50 22 58 30 69 65 14 48 6
116 -20 158 -11 18 -48 48 -87 70 -80 47 -104 76 -111 137 -10 86 11 119 105
164 71 33 87 65 87 168 0 116 -26 164 -125 230 -96 65 -115 96 -115 195 0 98
19 130 113 193 90 61 112 103 119 221 8 119 -13 162 -98 207 -81 44 -103 74
-103 142 0 71 26 121 80 154 95 59 108 69 128 96 17 23 21 43 21 107 0 91 -12
111 -85 143 -72 31 -90 53 -90 108 0 60 23 88 104 132 77 41 98 70 99 136 1
61 -10 74 -79 100 -27 11 -58 30 -68 44 -17 23 -17 29 -6 58 11 25 28 38 86
65 72 32 94 54 94 92 0 22 -30 52 -51 52 -8 0 -31 5 -51 11 -41 11 -49 32 -20
48 9 6 12 11 6 11 -5 0 -18 -6 -28 -13z"/>
<path d="M1842 4072 c-38 -11 -25 -27 21 -27 31 0 42 4 42 15 0 17 -28 22 -63
12z"/>
<path d="M2002 4074 c-25 -11 1 -24 49 -24 36 0 49 4 47 13 -5 12 -73 20 -96
11z"/>
<path d="M2192 4063 c3 -19 57 -30 86 -18 14 6 11 10 -13 21 -44 19 -77 18
-73 -3z"/>
<path d="M1592 4056 c-70 -17 -115 -61 -83 -80 8 -5 118 9 154 20 15 5 47 51
47 69 0 9 -62 4 -118 -9z"/>
<path d="M2396 4048 c10 -35 23 -47 63 -57 56 -15 134 -17 138 -5 9 26 -33 56
-97 69 -97 21 -113 20 -104 -7z"/>
<path d="M1448 4011 c17 -11 6 -19 -84 -64 -73 -37 -114 -75 -114 -108 0 -20
28 -39 59 -39 11 0 27 -7 36 -16 35 -35 -10 -103 -101 -153 -56 -30 -89 -75
-99 -131 -10 -60 1 -78 59 -104 40 -18 55 -30 60 -50 15 -59 -23 -130 -92
-175 -76 -49 -100 -80 -118 -155 -24 -96 -14 -131 51 -173 67 -44 75 -57 75
-122 -1 -81 -26 -129 -99 -185 -79 -61 -94 -90 -99 -197 -6 -118 6 -149 75
-200 67 -50 86 -90 86 -179 0 -82 -18 -117 -83 -164 -59 -43 -70 -66 -70 -149
1 -124 20 -164 115 -236 67 -51 94 -102 95 -174 0 -53 -20 -80 -91 -122 -32
-19 -34 -23 -37 -85 -3 -83 24 -142 87 -185 24 -16 60 -46 81 -65 64 -60 65
-151 3 -166 -53 -12 -73 -32 -73 -70 0 -59 34 -111 92 -142 124 -65 160 -151
65 -152 -12 0 -28 -4 -36 -9 -22 -14 0 -56 41 -81 45 -28 59 -25 17 3 -47 32
-45 60 4 68 50 8 61 20 52 58 -10 45 -39 77 -106 112 -61 33 -91 65 -102 107
-9 38 2 53 59 78 63 28 72 49 54 126 -14 57 -49 98 -129 151 -70 46 -105 129
-79 184 7 15 31 37 53 49 73 41 78 49 72 139 -6 103 -30 152 -100 203 -90 68
-108 100 -110 194 0 68 15 94 78 138 65 44 75 71 74 187 0 128 -11 157 -78
208 -68 52 -85 84 -85 160 1 77 29 134 88 174 88 61 116 121 116 249 0 68 -15
94 -70 122 -69 35 -87 90 -55 167 21 49 39 68 103 109 61 39 87 78 102 150 15
72 2 99 -57 125 -55 23 -63 33 -63 74 0 46 33 86 107 131 74 44 103 85 103
142 0 34 -12 44 -72 56 -21 5 -28 12 -28 29 0 32 33 59 112 95 71 32 108 72
66 72 -16 0 -19 -3 -10 -9z"/>
<path d="M1962 4004 c-17 -11 -22 -25 -22 -58 0 -23 5 -47 12 -54 7 -7 44 -12
98 -12 54 0 91 5 98 12 20 20 15 85 -8 108 -26 26 -143 29 -178 4z"/>
<path d="M2620 4012 c0 -15 33 -39 107 -76 70 -35 93 -57 93 -90 0 -9 -12 -18
-27 -21 -58 -12 -78 -29 -75 -64 4 -51 29 -90 80 -121 76 -47 93 -60 113 -94
36 -59 20 -102 -45 -123 -17 -5 -39 -21 -50 -36 -18 -24 -19 -32 -8 -88 14
-76 30 -101 90 -142 82 -56 109 -88 122 -147 15 -68 3 -104 -41 -128 -18 -9
-45 -28 -62 -42 -27 -24 -29 -30 -28 -98 1 -122 12 -147 101 -232 44 -41 84
-88 90 -103 14 -38 13 -140 -2 -172 -6 -14 -36 -43 -66 -66 -70 -54 -85 -88
-86 -209 -1 -114 9 -139 78 -191 63 -48 75 -71 76 -139 0 -78 -30 -133 -105
-190 -72 -55 -96 -100 -103 -190 -7 -96 1 -116 51 -141 66 -33 77 -47 77 -96
0 -24 -6 -58 -14 -77 -13 -32 -26 -44 -116 -109 -56 -41 -80 -82 -87 -149 -6
-61 2 -73 71 -98 34 -13 42 -21 44 -45 6 -48 -23 -88 -94 -129 -72 -42 -99
-72 -109 -118 -9 -37 12 -58 57 -58 42 0 48 -28 12 -57 l-29 -25 33 17 c40 20
63 62 41 76 -8 5 -24 9 -36 9 -36 0 -53 11 -53 35 0 34 32 68 104 110 51 30
70 48 87 81 29 60 23 105 -16 122 -76 33 -80 36 -83 78 -4 53 25 95 108 154
76 53 102 98 108 181 5 71 -7 93 -67 124 -56 28 -61 37 -61 108 0 69 30 119
105 177 73 56 95 97 102 193 8 102 -6 139 -68 184 -67 48 -83 81 -83 168 0 87
17 123 83 171 69 49 84 86 79 193 -5 109 -23 146 -98 205 -75 57 -100 105
-100 186 0 55 3 65 29 88 15 15 43 36 61 47 43 26 53 62 39 143 -14 79 -39
116 -114 166 -42 29 -67 54 -82 86 -40 79 -25 127 47 149 54 16 67 43 51 106
-17 68 -36 91 -112 136 -69 40 -99 76 -99 119 0 20 12 28 75 46 37 12 41 30
15 72 -15 24 -40 42 -88 64 -80 36 -108 58 -90 70 9 5 6 8 -9 8 -13 0 -23 -4
-23 -8z"/>
<path d="M1343 3980 c-37 -15 -28 -31 10 -18 17 6 36 15 42 19 12 12 -23 11
-52 -1z"/>
<path d="M2706 3980 c14 -14 74 -31 74 -21 0 10 -46 31 -67 31 -12 0 -14 -3
-7 -10z"/>
<path d="M1722 3958 c-7 -7 -12 -20 -12 -30 0 -14 8 -18 34 -18 38 0 83 30 72
48 -9 16 -79 15 -94 0z"/>
<path d="M2284 3958 c-10 -17 33 -48 67 -48 33 0 48 22 29 45 -15 18 -86 20
-96 3z"/>
<path d="M1210 3930 c-19 -11 -31 -19 -27 -20 11 0 67 29 67 35 0 7 -1 7 -40
-15z"/>
<path d="M1530 3932 c-32 -26 -18 -46 27 -39 39 7 63 23 63 43 0 21 -63 18
-90 -4z"/>
<path d="M2476 3942 c-10 -16 21 -41 60 -48 44 -8 66 8 42 32 -19 19 -93 31
-102 16z"/>
<path d="M2864 3931 c6 -10 66 -33 66 -26 0 5 -56 35 -65 35 -3 0 -4 -4 -1 -9z"/>
<path d="M1360 3907 c-14 -7 -26 -20 -28 -30 -3 -13 4 -17 31 -17 33 0 67 24
67 48 0 16 -38 15 -70 -1z"/>
<path d="M2670 3907 c0 -23 35 -47 68 -47 41 0 42 24 2 45 -36 19 -70 19 -70
2z"/>
<path d="M1151 3882 c-25 -9 -60 -32 -78 -50 -32 -31 -52 -77 -39 -89 3 -3 38
5 78 18 69 23 75 27 100 74 15 28 28 53 28 58 0 12 -42 7 -89 -11z"/>
<path d="M2860 3887 c0 -7 13 -34 29 -59 27 -42 37 -49 96 -67 82 -26 85 -26
85 -3 0 35 -67 100 -126 121 -64 24 -84 26 -84 8z"/>
<path d="M1555 3855 c-5 -2 -27 -6 -48 -10 -20 -3 -46 -15 -56 -27 -24 -25
-45 -109 -36 -139 7 -20 12 -21 79 -16 116 9 137 26 151 121 9 56 -4 76 -49
75 -17 0 -35 -2 -41 -4z"/>
<path d="M2462 3848 c-27 -27 -5 -139 33 -164 13 -8 56 -18 97 -21 93 -7 103
2 87 76 -16 75 -41 99 -114 111 -77 13 -89 12 -103 -2z"/>
<path d="M1802 3824 c-7 -3 -17 -15 -23 -26 -15 -28 6 -48 51 -48 43 0 63 18
58 52 -2 19 -10 23 -38 25 -19 1 -41 0 -48 -3z"/>
<path d="M1996 3814 c-26 -26 -4 -54 44 -54 21 0 45 3 54 6 19 7 21 35 4 52
-17 17 -84 15 -102 -4z"/>
<path d="M2217 3823 c-11 -11 -8 -48 5 -61 29 -29 115 -2 102 32 -10 26 -89
48 -107 29z"/>
<path d="M985 3810 c-4 -6 1 -7 11 -3 47 18 -46 -81 -117 -125 -39 -23 -84
-84 -95 -126 -5 -22 -1 -27 33 -43 34 -17 38 -22 35 -53 -4 -48 -36 -95 -98
-141 -64 -49 -96 -109 -102 -191 l-4 -56 41 -26 c49 -31 57 -58 41 -128 -11
-44 -24 -64 -79 -120 -70 -72 -86 -105 -96 -196 -8 -72 5 -107 56 -152 49 -43
64 -93 49 -171 -6 -28 -10 -54 -10 -56 0 -3 -25 -31 -56 -63 -50 -53 -56 -64
-64 -117 -8 -62 1 -158 19 -191 6 -11 26 -33 45 -49 57 -47 80 -96 80 -176 l1
-69 -50 -44 -50 -43 0 -68 c0 -96 24 -152 91 -211 67 -60 94 -110 94 -174 0
-45 -2 -49 -41 -74 -41 -25 -41 -27 -37 -74 7 -69 36 -118 104 -173 103 -84
133 -162 67 -179 -18 -5 -33 -15 -33 -22 0 -23 57 -92 95 -116 24 -15 33 -25
25 -30 -8 -5 -7 -9 5 -13 10 -5 14 -3 9 4 -4 7 -1 10 7 7 8 -3 14 -10 14 -15
0 -6 4 -15 9 -20 5 -5 6 -3 2 4 -13 23 7 14 44 -19 l35 -33 -30 33 c-16 18
-57 51 -91 73 -96 62 -120 112 -61 127 29 8 32 12 29 42 -4 53 -42 110 -106
162 -70 56 -93 88 -102 145 -6 40 -5 43 27 62 60 35 62 39 55 104 -9 84 -35
137 -95 188 -111 94 -132 226 -45 280 42 26 54 53 54 124 0 104 -17 154 -75
215 -69 73 -75 86 -75 167 1 79 10 99 67 148 52 44 67 87 67 196 1 96 -10 126
-55 153 -39 23 -52 50 -51 111 1 73 22 115 90 182 66 64 92 124 92 215 0 46
-23 88 -49 88 -20 0 -41 33 -41 63 0 53 37 114 101 163 65 50 96 100 106 169
6 44 5 45 -31 60 -22 9 -36 22 -36 33 0 33 39 81 98 121 55 37 122 105 122
123 0 12 -38 10 -45 -2z"/>
<path d="M3070 3810 c0 -18 72 -91 126 -126 53 -35 94 -87 94 -118 0 -9 -16
-22 -36 -31 -36 -15 -36 -16 -32 -59 8 -65 38 -115 99 -165 61 -49 94 -98 104
-153 7 -39 -5 -57 -66 -99 -19 -13 -22 -24 -21 -68 2 -100 26 -154 96 -221 68
-66 86 -104 86 -185 0 -44 -4 -51 -49 -95 -58 -56 -66 -86 -58 -195 6 -88 14
-105 80 -172 46 -47 51 -57 55 -107 7 -90 -4 -123 -62 -185 -29 -31 -59 -67
-66 -81 -7 -14 -15 -69 -18 -123 l-5 -98 52 -47 c49 -45 51 -49 51 -100 0 -72
-18 -108 -85 -172 -62 -59 -91 -111 -101 -183 -9 -64 0 -92 36 -107 43 -18 53
-41 39 -92 -11 -42 -28 -62 -136 -159 -27 -24 -46 -53 -58 -88 -20 -62 -16
-76 24 -84 18 -4 31 -13 31 -21 0 -25 -50 -76 -120 -122 -67 -44 -111 -84 -94
-84 6 0 25 16 44 35 32 33 59 48 44 24 -4 -8 0 -7 15 1 12 6 19 15 16 19 -2 5
13 21 35 36 45 31 83 86 78 112 -2 9 -14 20 -28 23 -34 8 -38 50 -10 95 12 19
47 54 78 77 64 48 101 111 110 183 4 42 3 45 -32 66 -47 27 -59 50 -50 97 11
60 38 104 97 154 42 36 59 59 70 95 39 120 30 187 -28 223 -52 32 -67 95 -43
188 8 34 24 59 60 93 61 59 78 100 78 193 0 94 -9 118 -70 182 -49 51 -70 100
-70 161 0 50 17 85 65 129 l45 42 0 73 c0 111 -13 145 -81 212 -67 66 -86 97
-95 155 -9 60 1 86 41 108 41 21 50 47 41 105 -10 65 -40 111 -109 172 -46 40
-71 71 -82 102 -21 53 -15 72 25 86 70 25 19 120 -111 207 -49 33 -84 76 -74
92 3 6 -1 10 -9 10 -9 0 -16 -4 -16 -10z"/>
<path d="M925 3762 c-33 -21 -63 -52 -49 -52 15 0 84 50 84 60 0 13 0 13 -35
-8z"/>
<path d="M3142 3768 c5 -15 69 -60 76 -53 8 8 -19 35 -51 51 -23 12 -28 13
-25 2z"/>
<path d="M1220 3740 c-21 -21 -28 -70 -9 -70 6 0 26 7 45 16 33 16 51 45 39
64 -10 17 -54 11 -75 -10z"/>
<path d="M2807 3753 c-25 -24 29 -83 76 -83 24 0 22 45 -3 70 -19 19 -60 27
-73 13z"/>
<path d="M1063 3705 c-27 -11 -53 -41 -53 -59 0 -3 13 -6 29 -6 38 0 87 40 78
63 -8 20 -12 20 -54 2z"/>
<path d="M2983 3703 c-13 -34 83 -84 101 -54 10 15 -27 51 -62 61 -27 7 -34 6
-39 -7z"/>
<path d="M2005 3704 c-11 -3 -30 -7 -42 -9 -43 -10 -61 -151 -24 -196 18 -22
27 -24 110 -24 118 0 126 7 126 111 -1 93 -15 110 -95 117 -30 3 -64 3 -75 1z"/>
<path d="M785 3674 c-18 -16 -22 -22 -9 -15 18 9 53 42 43 41 -2 -1 -17 -12
-34 -26z"/>
<path d="M3270 3697 c0 -2 15 -14 33 -27 20 -15 27 -17 18 -6 -13 16 -51 41
-51 33z"/>
<path d="M902 3657 c-33 -19 -58 -57 -42 -67 21 -13 51 1 71 34 10 17 19 34
19 39 0 11 -22 8 -48 -6z"/>
<path d="M3150 3656 c0 -20 37 -63 60 -69 36 -9 37 23 2 55 -35 30 -62 37 -62
14z"/>
<path d="M724 3606 c-28 -19 -58 -46 -68 -60 -9 -15 -21 -24 -26 -21 -4 3 -18
-11 -30 -30 -12 -19 -25 -33 -29 -30 -5 2 -21 -10 -37 -28 -29 -31 -29 -32 -1
-8 46 41 30 11 -26 -48 -30 -31 -59 -67 -66 -81 l-12 -25 18 25 c10 14 43 52
74 85 31 33 68 78 82 100 30 44 36 41 11 -6 -20 -39 -14 -44 30 -29 53 17 84
46 116 111 46 91 41 97 -36 45z"/>
<path d="M3317 3603 c27 -66 67 -117 111 -141 23 -13 49 -22 57 -20 37 8 -66
142 -137 179 -21 10 -39 19 -42 19 -3 0 2 -17 11 -37z"/>
<path d="M1670 3610 c-18 -34 -9 -74 18 -78 59 -9 112 46 82 83 -19 23 -87 20
-100 -5z"/>
<path d="M2332 3618 c-7 -7 -12 -22 -12 -35 0 -27 49 -56 88 -51 22 2 28 9 30
34 2 19 -3 38 -13 48 -19 19 -76 21 -93 4z"/>
<path d="M1480 3603 c-52 -19 -66 -68 -24 -83 20 -8 35 -6 63 7 74 36 39 104
-39 76z"/>
<path d="M2553 3604 c-19 -8 -16 -49 5 -66 36 -32 112 -28 112 6 0 39 -76 78
-117 60z"/>
<path d="M1027 3586 c-65 -18 -94 -48 -117 -124 -34 -110 -26 -123 65 -103 77
17 101 40 126 121 34 114 22 132 -74 106z"/>
<path d="M2983 3583 c-8 -21 11 -111 32 -157 19 -40 64 -64 133 -73 61 -7 67
4 47 82 -28 107 -47 129 -127 151 -68 18 -77 18 -85 -3z"/>
<path d="M1290 3583 c-49 -18 -79 -84 -44 -97 31 -12 53 -6 74 21 36 46 17 94
-30 76z"/>
<path d="M2767 3583 c-14 -14 -6 -64 13 -83 35 -35 94 -22 88 21 -5 35 -81 82
-101 62z"/>
<path d="M3492 3494 c13 -23 54 -75 92 -115 63 -67 77 -72 17 -6 -14 15 -26
35 -27 44 -2 9 -13 26 -25 37 l-23 21 18 -23 c11 -12 17 -25 13 -28 -5 -5 -17
10 -75 92 -7 11 -3 0 10 -22z"/>
<path d="M748 3443 c-19 -21 -41 -73 -34 -81 3 -2 17 -1 31 2 26 7 68 62 62
81 -6 18 -43 16 -59 -2z"/>
<path d="M1448 3451 c-80 -16 -103 -52 -115 -181 -7 -87 1 -94 103 -88 120 8
152 47 153 190 1 57 -2 69 -18 78 -22 11 -67 11 -123 1z"/>
<path d="M2526 3447 c-16 -12 -18 -24 -14 -98 6 -104 19 -133 70 -153 46 -19
159 -21 176 -4 15 15 15 61 1 130 -22 104 -42 121 -157 133 -41 5 -62 3 -76
-8z"/>
<path d="M3295 3450 c-10 -16 4 -48 32 -70 34 -27 53 -25 53 4 0 48 -65 98
-85 66z"/>
<path d="M625 3398 c-27 -15 -55 -49 -55 -70 0 -22 3 -22 39 -4 29 16 57 64
44 77 -4 4 -17 3 -28 -3z"/>
<path d="M1769 3395 c-48 -26 -44 -88 5 -101 42 -10 70 0 85 30 30 64 -24 108
-90 71z"/>
<path d="M1995 3386 c-34 -34 -22 -68 30 -81 47 -12 89 9 93 47 7 55 -79 78
-123 34z"/>
<path d="M2242 3398 c-34 -34 0 -108 49 -108 46 0 69 17 69 50 0 51 -84 92
-118 58z"/>
<path d="M3444 3397 c-13 -34 55 -102 78 -79 14 14 -12 55 -50 80 -19 13 -22
12 -28 -1z"/>
<path d="M488 3323 c-35 -39 -42 -63 -18 -63 13 0 27 14 40 40 11 21 20 42 20
45 0 13 -18 3 -42 -22z"/>
<path d="M3570 3345 c0 -21 32 -75 49 -85 18 -9 21 -8 21 9 0 21 -45 81 -61
81 -5 0 -9 -2 -9 -5z"/>
<path d="M1120 3322 c-28 -22 -40 -99 -17 -108 16 -6 67 16 84 38 21 26 24 56
8 72 -21 21 -47 20 -75 -2z"/>
<path d="M2906 3324 c-21 -21 -20 -36 5 -68 30 -38 68 -51 87 -32 13 13 13 22
3 55 -17 57 -62 78 -95 45z"/>
<path d="M355 3210 c-37 -56 -66 -103 -63 -105 11 -11 62 54 98 126 22 43 38
79 36 79 -2 0 -34 -45 -71 -100z"/>
<path d="M944 3290 c-26 -10 -54 -48 -54 -72 0 -51 87 -34 110 22 12 29 12 34
-5 46 -21 16 -22 16 -51 4z"/>
<path d="M3102 3288 c-27 -27 -2 -79 47 -96 41 -14 65 4 55 41 -10 42 -78 79
-102 55z"/>
<path d="M3666 3269 c19 -38 18 -56 -6 -69 -25 -13 -25 -31 0 -114 15 -46 36
-84 71 -126 60 -72 79 -115 81 -177 0 -39 -4 -49 -25 -65 -34 -25 -41 -66 -27
-152 12 -77 36 -129 74 -165 52 -48 63 -174 21 -232 -13 -19 -32 -45 -42 -59
-15 -19 -18 -44 -18 -131 0 -102 1 -109 26 -136 38 -40 49 -66 49 -115 0 -67
-17 -112 -61 -162 -44 -50 -64 -102 -75 -194 -6 -56 -5 -61 25 -94 36 -41 36
-46 16 -116 -10 -34 -32 -69 -65 -105 -50 -55 -92 -133 -105 -194 -5 -26 -2
-34 14 -43 20 -10 20 -12 5 -41 -9 -17 -11 -29 -6 -25 5 3 15 19 22 36 7 16
16 28 20 25 5 -3 25 19 46 47 22 32 28 45 14 33 -12 -11 -28 -32 -36 -47 l-14
-28 -25 22 c-19 16 -23 27 -18 47 11 46 41 98 91 155 51 58 83 134 85 202 1
26 -6 41 -26 60 -19 17 -27 35 -27 58 0 56 30 135 66 175 43 48 60 90 68 166
8 73 -3 115 -43 161 -29 32 -31 40 -31 112 0 80 6 96 54 157 27 34 30 43 29
114 0 96 -14 138 -63 198 -25 30 -43 64 -50 95 -17 79 -13 104 21 143 30 33
31 39 26 94 -6 76 -36 141 -91 202 -41 46 -76 119 -76 160 0 10 10 25 22 33
23 16 23 11 -8 106 -3 8 12 -18 34 -57 45 -83 57 -100 85 -115 19 -10 19 -9
-2 28 -46 78 -110 161 -125 161 -13 0 -13 -4 0 -28z"/>
<path d="M412 3245 c-17 -36 -15 -52 8 -75 15 -15 19 -28 14 -48 -13 -56 -42
-110 -87 -160 -49 -55 -77 -125 -80 -201 -1 -32 5 -47 28 -71 26 -27 29 -37
28 -89 -2 -71 -22 -121 -67 -171 -60 -66 -75 -228 -28 -288 50 -62 56 -76 60
-138 5 -81 -1 -105 -41 -150 -30 -35 -32 -43 -32 -108 0 -104 11 -138 60 -198
50 -61 60 -83 70 -154 6 -48 4 -54 -24 -87 -37 -41 -37 -54 -11 -141 15 -48
34 -81 72 -123 75 -86 112 -182 74 -196 -7 -3 -16 -15 -19 -27 -3 -12 -3 -19
0 -16 3 3 12 -2 19 -12 12 -15 12 -15 7 5 -4 17 -1 23 10 23 23 0 26 20 9 75
-20 70 -38 101 -87 154 -52 56 -73 97 -81 154 -6 39 -3 47 22 71 26 23 29 32
27 82 -3 82 -29 159 -68 203 -47 52 -65 99 -65 170 0 53 4 65 31 95 36 42 49
82 49 156 -1 82 -15 129 -51 166 -29 30 -34 42 -37 98 -5 80 7 118 57 179 43
52 61 111 61 204 0 48 -4 60 -31 91 -28 32 -30 39 -24 81 10 68 26 100 82 164
33 37 56 75 66 109 30 98 30 104 7 126 -17 15 -21 27 -16 46 8 33 2 33 -12 1z"/>
<path d="M565 3251 c-22 -10 -46 -25 -53 -33 -17 -21 -49 -117 -57 -173 -7
-44 -7 -45 19 -45 40 0 92 25 111 54 18 27 55 156 55 194 0 27 -20 28 -75 3z"/>
<path d="M3460 3243 c0 -35 38 -174 53 -194 28 -37 117 -63 132 -39 8 13 -19
119 -45 177 -15 34 -29 48 -62 63 -60 27 -78 26 -78 -7z"/>
<path d="M746 3230 c-42 -51 -32 -99 18 -86 26 6 46 39 49 81 3 44 -32 46 -67
5z"/>
<path d="M3280 3240 c0 -41 28 -89 55 -96 51 -13 61 42 16 87 -35 34 -71 39
-71 9z"/>
<path d="M1954 3216 c-35 -15 -41 -31 -50 -126 -8 -80 8 -145 39 -161 25 -14
158 -18 199 -6 41 11 52 41 51 140 -1 105 -14 142 -55 156 -43 15 -147 13
-184 -3z"/>
<path d="M1626 3114 c-23 -23 -25 -102 -2 -117 18 -13 69 2 95 27 28 29 31 74
5 93 -24 18 -79 16 -98 -3z"/>
<path d="M2370 3110 c-24 -24 -25 -32 -6 -69 23 -43 88 -65 114 -39 17 17 15
79 -4 106 -20 29 -76 30 -104 2z"/>
<path d="M356 3098 c-23 -35 -33 -92 -15 -86 19 6 60 69 57 87 -5 24 -26 24
-42 -1z"/>
<path d="M874 3101 c-48 -22 -67 -61 -84 -173 -12 -81 -6 -116 24 -124 33 -8
118 15 143 38 28 26 55 144 51 219 l-3 54 -45 3 c-28 1 -61 -5 -86 -17z"/>
<path d="M3090 3098 c-9 -19 -8 -46 4 -117 25 -143 39 -159 151 -177 60 -9 69
7 62 104 -11 155 -43 198 -153 209 -49 5 -54 4 -64 -19z"/>
<path d="M3700 3096 c0 -28 54 -96 66 -83 4 4 -1 29 -12 55 -22 53 -54 70 -54
28z"/>
<path d="M1402 3095 c-63 -28 -65 -115 -3 -115 67 0 116 53 91 99 -6 12 -15
21 -20 21 -4 0 -14 2 -22 5 -7 2 -28 -2 -46 -10z"/>
<path d="M2629 3096 c-57 -28 -16 -116 53 -116 50 0 63 14 59 61 -3 44 -69 77
-112 55z"/>
<path d="M1194 3080 c-29 -12 -64 -58 -64 -86 0 -23 33 -54 58 -54 7 0 24 11
37 25 30 29 36 109 9 119 -9 3 -16 6 -17 5 -1 0 -12 -4 -23 -9z"/>
<path d="M2855 3074 c-18 -18 -18 -27 -5 -76 17 -58 63 -75 101 -37 35 35 8
97 -52 118 -22 8 -32 7 -44 -5z"/>
<path d="M268 3038 c-22 -34 -31 -68 -19 -68 13 0 51 59 51 78 0 19 -16 14
-32 -10z"/>
<path d="M3800 3043 c0 -22 35 -73 50 -73 14 0 -9 56 -31 76 -18 16 -19 16
-19 -3z"/>
<path d="M615 2957 c-8 -13 -16 -41 -18 -63 -2 -30 2 -39 16 -42 25 -5 64 33
72 70 12 54 -40 80 -70 35z"/>
<path d="M3416 2964 c-3 -9 -6 -24 -6 -34 0 -27 48 -80 72 -80 19 0 20 5 16
50 -3 27 -11 56 -18 65 -16 20 -56 19 -64 -1z"/>
<path d="M205 2959 c-4 -6 -5 -12 -2 -15 2 -3 7 2 10 11 7 17 1 20 -8 4z"/>
<path d="M471 2921 c-36 -36 -40 -101 -7 -101 30 0 58 35 60 75 1 47 -21 58
-53 26z"/>
<path d="M3577 2933 c-14 -13 -6 -61 14 -87 24 -30 55 -34 64 -7 14 45 -50
122 -78 94z"/>
<path d="M218 2895 c-26 -26 -66 -141 -70 -205 -3 -32 -1 -35 22 -32 14 1 32
11 42 22 15 19 58 180 58 221 0 26 -22 24 -52 -6z"/>
<path d="M3830 2894 c0 -15 9 -66 21 -115 16 -69 26 -93 46 -109 43 -34 56
-27 51 28 -8 78 -39 164 -69 194 -34 35 -49 35 -49 2z"/>
<path d="M362 2903 c-17 -7 -42 -57 -42 -87 0 -61 53 -28 66 40 7 37 -2 55
-24 47z"/>
<path d="M3710 2880 c0 -48 26 -102 47 -98 27 6 22 72 -7 103 -31 33 -40 31
-40 -5z"/>
<path d="M1365 2891 c-59 -14 -74 -29 -91 -88 -10 -33 -17 -97 -18 -151 -1
-82 1 -95 18 -108 39 -28 178 -10 212 27 24 26 44 127 44 221 0 68 -2 79 -22
92 -23 17 -90 20 -143 7z"/>
<path d="M2586 2881 c-16 -18 -18 -33 -14 -128 8 -172 33 -209 151 -220 116
-10 137 22 117 182 -18 146 -42 173 -161 182 -66 5 -76 3 -93 -16z"/>
<path d="M157 2843 c-4 -3 -7 -20 -6 -37 l1 -31 8 35 c9 36 8 45 -3 33z"/>
<path d="M3932 2835 c0 -11 4 -31 8 -45 6 -20 8 -21 8 -5 0 11 -4 31 -8 45 -6
20 -8 21 -8 5z"/>
<path d="M1719 2801 c-36 -36 -39 -81 -7 -111 25 -23 75 -26 102 -7 22 16 33
96 17 126 -18 33 -75 29 -112 -8z"/>
<path d="M2002 2820 c-57 -23 -47 -112 14 -129 75 -21 134 26 112 90 -15 42
-72 60 -126 39z"/>
<path d="M2271 2812 c-16 -30 -13 -94 5 -120 33 -48 134 -12 134 48 0 43 -37
80 -87 87 -34 4 -43 2 -52 -15z"/>
<path d="M141 2754 c0 -11 3 -14 6 -6 3 7 2 16 -1 19 -3 4 -6 -2 -5 -13z"/>
<path d="M111 2727 c-6 -19 -9 -41 -6 -50 4 -8 -3 -34 -15 -57 -12 -23 -19
-44 -17 -46 2 -3 16 22 31 55 26 59 34 89 16 61 -13 -20 -13 1 0 36 6 15 9 29
6 31 -2 2 -9 -11 -15 -30z"/>
<path d="M1033 2752 c-31 -20 -44 -120 -18 -142 8 -6 23 -9 34 -5 31 9 71 63
71 94 0 45 -51 76 -87 53z"/>
<path d="M2996 2744 c-35 -34 -8 -112 45 -134 28 -12 33 -12 46 6 17 22 10 86
-13 122 -17 26 -55 29 -78 6z"/>
<path d="M3951 2744 c0 -11 3 -14 6 -6 3 7 2 16 -1 19 -3 4 -6 -2 -5 -13z"/>
<path d="M415 2728 c-21 -19 -30 -40 -41 -94 -14 -74 -18 -152 -8 -178 8 -21
82 -22 111 -1 28 19 45 93 46 202 l2 88 -41 3 c-32 2 -48 -2 -69 -20z"/>
<path d="M3573 2648 c11 -172 30 -208 114 -208 37 0 43 3 49 26 8 32 -13 200
-29 233 -15 33 -52 51 -101 51 l-39 0 6 -102z"/>
<path d="M843 2720 c-27 -11 -43 -40 -43 -77 0 -35 16 -53 46 -53 52 0 88 106
45 130 -22 11 -19 11 -48 0z"/>
<path d="M3194 2705 c-18 -28 -12 -59 19 -92 37 -41 87 -25 87 28 0 41 -9 58
-41 74 -38 20 -46 19 -65 -10z"/>
<path d="M657 2690 c-30 -24 -44 -78 -28 -109 14 -26 57 -28 70 -3 15 27 24
88 16 111 -8 26 -25 27 -58 1z"/>
<path d="M3387 2703 c-12 -11 -7 -87 6 -113 17 -35 52 -38 72 -6 14 21 15 31
5 61 -15 47 -62 79 -83 58z"/>
<path d="M3976 2670 c7 -27 34 -71 34 -55 -1 6 -10 26 -21 45 -15 26 -18 29
-13 10z"/>
<path d="M241 2601 c-13 -23 -15 -111 -3 -111 39 0 67 120 30 128 -9 2 -21 -6
-27 -17z"/>
<path d="M3817 2613 c-14 -14 -6 -72 14 -97 25 -32 39 -26 39 19 0 62 -28 104
-53 78z"/>
<path d="M146 2568 c-21 -29 -21 -88 -1 -88 20 0 35 32 35 74 0 41 -12 46 -34
14z"/>
<path d="M1944 2576 c-48 -21 -59 -61 -59 -218 0 -137 0 -138 28 -165 26 -27
31 -28 130 -28 162 0 184 28 174 225 -7 131 -19 168 -63 186 -42 18 -169 18
-210 0z"/>
<path d="M3915 2580 c-9 -15 5 -78 21 -91 22 -18 37 0 31 38 -9 50 -36 79 -52
53z"/>
<path d="M82 2546 c-14 -32 -16 -100 -3 -91 11 6 25 87 19 106 -2 6 -9 -1 -16
-15z"/>
<path d="M4000 2530 c0 -46 10 -80 22 -80 14 0 4 88 -11 103 -8 8 -11 2 -11
-23z"/>
<path d="M820 2501 c-48 -10 -60 -18 -75 -55 -17 -41 -29 -174 -21 -231 10
-62 26 -75 92 -75 98 0 109 18 120 190 7 111 -3 170 -30 170 -6 0 -20 2 -31 4
-11 2 -36 1 -55 -3z"/>
<path d="M3202 2502 c-38 -6 -45 -36 -39 -168 6 -125 20 -175 52 -188 9 -3 40
-6 69 -6 80 0 90 16 89 144 -1 120 -15 181 -46 200 -24 15 -88 24 -125 18z"/>
<path d="M1564 2425 c-15 -36 -18 -92 -8 -119 11 -29 41 -38 77 -22 66 27 87
98 46 150 -16 20 -29 26 -60 26 -36 0 -41 -3 -55 -35z"/>
<path d="M2422 2437 c-26 -28 -29 -82 -6 -116 23 -32 79 -54 104 -41 36 20 39
123 3 162 -23 26 -75 23 -101 -5z"/>
<path d="M46 2400 c15 -126 15 -186 -1 -230 -9 -25 -19 -58 -21 -75 -4 -26 -2
-24 11 10 39 95 46 214 20 295 l-15 45 6 -45z"/>
<path d="M1335 2428 c-41 -24 -57 -75 -39 -123 20 -51 114 -32 133 28 24 72
-33 130 -94 95z"/>
<path d="M2684 2415 c-22 -22 -25 -32 -21 -63 12 -68 72 -99 120 -62 51 41 24
129 -45 146 -21 5 -33 0 -54 -21z"/>
<path d="M1103 2415 c-52 -37 -50 -129 3 -154 49 -22 75 11 76 94 2 69 -31 93
-79 60z"/>
<path d="M2920 2404 c-20 -51 -7 -119 26 -141 22 -14 26 -14 49 1 50 33 53 95
8 141 -34 33 -70 33 -83 -1z"/>
<path d="M4039 2388 c-18 -43 -14 -185 7 -241 9 -23 19 -55 24 -72 7 -28 8
-28 9 -5 1 14 -8 49 -19 78 -23 61 -28 172 -10 227 15 46 7 56 -11 13z"/>
<path d="M109 2394 c-19 -23 -36 -216 -21 -249 13 -28 38 -32 67 -11 17 12 20
30 23 145 l4 131 -30 0 c-16 0 -35 -7 -43 -16z"/>
<path d="M3914 2386 c-9 -36 11 -233 26 -251 14 -17 56 -20 65 -4 10 16 6 190
-5 228 -11 39 -24 51 -57 51 -16 0 -25 -8 -29 -24z"/>
<path d="M540 2360 c-6 -11 -10 -44 -8 -73 2 -41 7 -53 21 -55 26 -5 56 25 63
64 12 63 -49 114 -76 64z"/>
<path d="M3497 2362 c-23 -25 -21 -74 4 -106 38 -48 69 -30 69 39 0 75 -36
108 -73 67z"/>
<path d="M403 2354 c-20 -9 -35 -68 -24 -98 21 -53 81 -16 81 49 0 44 -22 63
-57 49z"/>
<path d="M3652 2348 c-17 -17 -15 -84 4 -102 20 -21 50 -20 58 0 12 31 6 81
-12 97 -22 20 -34 21 -50 5z"/>
<path d="M266 2328 c-21 -29 -20 -82 0 -103 22 -21 40 -5 47 43 12 73 -15 106
-47 60z"/>
<path d="M3783 2334 c-8 -23 5 -107 19 -115 7 -5 21 -1 31 9 32 29 9 122 -30
122 -7 0 -16 -7 -20 -16z"/>
<path d="M28 2290 c-12 -40 -10 -106 3 -93 5 5 9 34 7 64 -2 42 -5 48 -10 29z"/>
<path d="M4050 2271 c0 -34 18 -87 26 -78 9 9 -7 107 -17 107 -5 0 -9 -13 -9
-29z"/>
<path d="M1273 2160 c-40 -16 -48 -46 -47 -185 0 -73 5 -142 12 -157 19 -45
54 -61 137 -62 111 -1 110 -3 110 200 l0 166 -28 24 c-24 20 -38 24 -95 23
-37 0 -77 -4 -89 -9z"/>
<path d="M2653 2158 c-12 -6 -27 -25 -32 -42 -15 -48 -22 -215 -12 -274 12
-76 27 -87 114 -86 123 2 144 27 153 186 6 126 -8 196 -46 215 -30 15 -146 16
-177 1z"/>
<path d="M365 2136 c-22 -16 -35 -96 -28 -181 9 -118 20 -135 88 -135 62 0 67
14 63 172 -3 115 -5 131 -22 144 -25 18 -77 18 -101 0z"/>
<path d="M3631 2131 c-33 -33 -40 -259 -8 -298 5 -7 28 -13 52 -13 70 0 79 19
83 165 3 114 2 125 -17 144 -27 27 -84 28 -110 2z"/>
<path d="M2 2030 c0 -73 1 -79 9 -42 4 23 4 61 0 85 -8 36 -9 30 -9 -43z"/>
<path d="M41 2038 c-9 -17 -11 -40 -7 -62 14 -72 36 -27 26 49 l-6 40 -13 -27z"/>
<path d="M204 2047 c-3 -8 -4 -39 -2 -68 3 -46 6 -54 23 -54 28 0 43 61 24
100 -16 33 -37 43 -45 22z"/>
<path d="M611 2034 c-35 -44 -20 -119 25 -130 36 -9 44 3 44 70 0 87 -29 111
-69 60z"/>
<path d="M986 2045 c-21 -22 -22 -113 0 -143 33 -48 94 -6 94 65 0 65 -58 113
-94 78z"/>
<path d="M1713 2045 c-37 -16 -53 -42 -53 -84 0 -45 18 -77 55 -97 49 -26 82
-13 95 37 12 45 6 108 -13 132 -18 23 -49 27 -84 12z"/>
<path d="M2311 2041 c-24 -24 -36 -79 -27 -129 11 -70 68 -82 122 -28 53 53
43 130 -21 161 -42 19 -51 19 -74 -4z"/>
<path d="M3053 2045 c-34 -24 -47 -76 -29 -119 17 -42 58 -58 83 -33 24 24 29
111 9 142 -19 29 -33 31 -63 10z"/>
<path d="M3430 2045 c-32 -38 -19 -145 18 -145 54 0 79 104 33 141 -28 23 -35
23 -51 4z"/>
<path d="M3856 2038 c-27 -39 -15 -118 18 -118 18 0 26 22 26 70 0 70 -17 87
-44 48z"/>
<path d="M4035 2038 c-9 -34 -2 -93 10 -93 13 0 19 95 6 108 -7 7 -12 2 -16
-15z"/>
<path d="M107 2043 c-12 -11 -8 -88 5 -101 19 -19 38 5 38 47 0 45 -23 74 -43
54z"/>
<path d="M785 2030 c-40 -44 -12 -130 41 -130 52 0 72 83 29 125 -29 30 -46
31 -70 5z"/>
<path d="M3240 2030 c-42 -42 -17 -130 37 -130 52 0 76 103 31 134 -30 21 -44
20 -68 -4z"/>
<path d="M3957 2043 c-4 -3 -7 -28 -7 -55 0 -40 3 -48 19 -48 21 0 31 19 31
55 0 45 -22 70 -43 48z"/>
<path d="M1979 2011 c-31 -31 -37 -67 -17 -104 18 -35 40 -46 89 -47 60 0 94
32 94 92 0 83 -104 120 -166 59z"/>
<path d="M4070 1944 c0 -14 -9 -45 -20 -69 -11 -25 -22 -66 -25 -92 l-4 -48 9
42 c5 23 16 55 25 72 16 32 32 121 21 121 -3 0 -6 -11 -6 -26z"/>
<path d="M20 1929 c0 -9 11 -46 24 -81 26 -68 33 -144 23 -238 -6 -51 -6 -53
5 -20 15 46 11 176 -6 231 -26 78 -45 124 -46 108z"/>
<path d="M97 1853 c-19 -18 3 -212 29 -250 17 -26 62 -31 71 -8 8 21 -14 221
-27 245 -10 20 -59 28 -73 13z"/>
<path d="M3931 1846 c-13 -15 -30 -136 -31 -213 0 -47 2 -53 21 -53 40 0 57
18 68 72 16 85 23 166 16 188 -7 24 -56 28 -74 6z"/>
<path d="M30 1789 c0 -42 12 -89 23 -89 11 0 2 74 -13 99 -8 13 -9 11 -10 -10z"/>
<path d="M756 1797 c-24 -18 -31 -86 -17 -186 11 -87 30 -135 56 -145 9 -3 40
-9 69 -12 43 -5 56 -3 71 12 16 16 17 30 12 129 -8 147 -19 183 -62 201 -43
18 -106 18 -129 1z"/>
<path d="M3212 1800 c-38 -16 -54 -73 -60 -207 l-5 -122 26 -12 c40 -18 115
-3 148 30 30 31 42 90 43 219 1 62 -2 76 -18 88 -22 16 -99 18 -134 4z"/>
<path d="M4046 1778 c-3 -13 -6 -39 -6 -58 1 -45 15 -22 24 38 6 44 -7 59 -18
20z"/>
<path d="M266 1744 c-13 -33 -5 -74 19 -101 21 -24 26 -26 35 -13 22 33 0 130
-29 130 -11 0 -22 -7 -25 -16z"/>
<path d="M3780 1734 c-13 -34 -13 -101 1 -110 17 -10 49 29 56 69 9 60 -37 94
-57 41z"/>
<path d="M1953 1739 c-55 -16 -65 -44 -65 -173 1 -126 15 -176 54 -197 13 -8
59 -13 109 -13 140 0 159 25 159 214 0 121 -11 150 -60 167 -41 14 -151 15
-197 2z"/>
<path d="M390 1714 c-13 -32 -4 -67 21 -90 27 -24 53 -8 57 35 7 66 -57 111
-78 55z"/>
<path d="M3645 1716 c-10 -15 -15 -39 -13 -63 2 -30 7 -39 25 -41 31 -4 55 36
51 85 -2 30 -7 39 -25 41 -14 2 -27 -5 -38 -22z"/>
<path d="M547 1723 c-13 -13 -7 -99 9 -121 20 -29 40 -28 60 3 19 29 13 78
-13 107 -16 18 -44 24 -56 11z"/>
<path d="M3491 1704 c-25 -32 -28 -86 -5 -109 37 -37 76 9 72 85 -3 37 -7 46
-24 48 -14 2 -29 -7 -43 -24z"/>
<path d="M4012 1680 c-1 -33 5 -65 14 -80 15 -25 15 -25 8 10 -3 19 -10 55
-14 80 l-7 45 -1 -55z"/>
<path d="M1103 1672 c-25 -16 -34 -61 -19 -97 16 -36 65 -69 90 -59 30 11 32
95 5 146 -10 18 -54 24 -76 10z"/>
<path d="M2921 1666 c-7 -8 -15 -39 -18 -68 -7 -68 11 -93 56 -77 82 29 81
159 -1 159 -14 0 -31 -6 -37 -14z"/>
<path d="M1340 1653 c-48 -17 -53 -81 -11 -124 35 -34 72 -38 101 -9 35 35 20
99 -29 125 -32 16 -37 17 -61 8z"/>
<path d="M2704 1650 c-55 -22 -73 -107 -29 -136 48 -32 111 3 121 67 9 56 -39
91 -92 69z"/>
<path d="M1576 1629 c-19 -27 -20 -63 -5 -108 19 -53 67 -66 113 -30 36 28 36
78 -1 119 -38 41 -85 50 -107 19z"/>
<path d="M2440 1633 c-39 -27 -49 -45 -50 -85 0 -28 6 -41 26 -57 54 -42 106
-17 118 58 13 81 -36 125 -94 84z"/>
<path d="M90 1527 c0 -33 20 -87 32 -87 5 0 7 8 4 18 -2 9 -7 32 -11 49 -8 40
-25 53 -25 20z"/>
<path d="M3992 1533 c-6 -10 -13 -36 -17 -58 -6 -37 -5 -39 9 -21 17 21 32 83
23 92 -3 3 -10 -3 -15 -13z"/>
<path d="M393 1534 c-18 -8 -16 -100 3 -183 19 -84 44 -111 110 -119 l47 -5
-6 89 c-7 104 -30 190 -55 203 -23 12 -84 21 -99 15z"/>
<path d="M3630 1527 c-44 -15 -56 -40 -75 -161 -20 -125 -16 -140 36 -133 22
3 51 12 64 21 29 19 53 91 62 188 8 96 -8 112 -87 85z"/>
<path d="M153 1474 c7 -44 31 -74 47 -58 16 16 -11 88 -34 92 -17 4 -18 0 -13
-34z"/>
<path d="M3911 1496 c-7 -8 -15 -30 -18 -50 -5 -29 -3 -36 11 -36 17 0 46 54
46 85 0 19 -24 20 -39 1z"/>
<path d="M246 1482 c-7 -12 10 -90 24 -107 21 -25 43 1 36 43 -7 47 -45 88
-60 64z"/>
<path d="M3805 1460 c-22 -42 -20 -90 3 -90 23 0 42 39 42 85 0 44 -23 47 -45
5z"/>
<path d="M110 1401 c0 -6 4 -13 10 -16 6 -3 7 1 4 9 -7 18 -14 21 -14 7z"/>
<path d="M656 1394 c-9 -8 -16 -24 -16 -35 0 -55 65 -114 91 -83 23 28 -12
134 -46 134 -7 0 -21 -7 -29 -16z"/>
<path d="M1286 1394 c-16 -16 -18 -29 -13 -104 12 -177 38 -210 166 -218 77
-4 79 -4 96 22 15 22 16 39 11 106 -15 171 -39 201 -164 208 -66 4 -81 2 -96
-14z"/>
<path d="M2633 1396 c-43 -19 -60 -49 -72 -126 -15 -94 -14 -152 5 -179 16
-22 21 -23 94 -18 43 3 87 10 99 16 33 18 50 62 63 166 11 83 10 100 -3 123
-13 25 -20 27 -84 29 -43 2 -82 -3 -102 -11z"/>
<path d="M3384 1389 c-21 -23 -27 -119 -8 -126 18 -6 71 44 78 73 8 29 -16 74
-38 74 -7 0 -21 -9 -32 -21z"/>
<path d="M3957 1365 c-24 -50 -20 -58 4 -12 11 22 19 41 17 43 -3 2 -12 -12
-21 -31z"/>
<path d="M827 1363 c-17 -16 -6 -75 18 -98 61 -62 119 9 64 79 -20 25 -66 36
-82 19z"/>
<path d="M3193 1348 c-65 -72 -5 -151 63 -83 20 20 25 34 22 63 -3 33 -6 37
-33 40 -22 2 -37 -4 -52 -20z"/>
<path d="M173 1306 c1 -24 6 -41 11 -38 5 3 7 -5 4 -16 -4 -14 -2 -20 4 -16 7
5 9 -3 4 -22 -4 -18 -3 -24 2 -16 7 10 12 5 21 -19 11 -33 57 -89 73 -89 28 0
-29 205 -67 238 -41 35 -54 29 -52 -22z"/>
<path d="M1027 1343 c-12 -12 -7 -73 8 -103 19 -37 49 -46 82 -25 22 15 24 22
19 53 -3 22 -16 46 -31 60 -25 21 -65 29 -78 15z"/>
<path d="M2989 1321 c-35 -35 -38 -79 -9 -106 33 -29 72 -10 89 43 27 87 -19
124 -80 63z"/>
<path d="M3882 1334 c-12 -8 -28 -27 -36 -42 -18 -36 -59 -192 -52 -199 11
-11 57 29 73 62 9 19 20 32 24 30 4 -3 5 5 2 17 -4 19 -3 20 6 8 9 -12 10 -9
5 14 -5 19 -3 27 4 22 6 -4 8 2 4 16 -3 11 -1 19 4 16 5 -4 9 12 9 33 1 42 -8
47 -43 23z"/>
<path d="M1722 1260 c-12 -12 -22 -31 -22 -44 0 -52 68 -98 119 -81 37 12 35
113 -2 137 -23 15 -73 8 -95 -12z"/>
<path d="M2270 1265 c-21 -26 -25 -99 -5 -118 42 -42 135 9 135 74 0 5 -11 21
-25 34 -28 29 -85 34 -105 10z"/>
<path d="M2007 1259 c-48 -19 -49 -96 -2 -117 38 -17 69 -15 99 9 69 54 -8
141 -97 108z"/>
<path d="M350 1185 c0 -46 35 -95 67 -95 9 0 -8 74 -23 98 -20 30 -44 29 -44
-3z"/>
<path d="M3703 1190 c-17 -27 -28 -100 -15 -100 20 0 62 61 62 91 0 35 -28 40
-47 9z"/>
<path d="M477 1163 c-28 -27 32 -120 68 -107 24 10 12 63 -21 92 -26 23 -36
26 -47 15z"/>
<path d="M823 1164 c-29 -13 -3 -191 35 -243 22 -30 72 -49 130 -50 54 -1 59
10 44 104 -15 98 -38 153 -72 170 -30 15 -118 28 -137 19z"/>
<path d="M3165 1155 c-22 -8 -48 -24 -57 -35 -21 -26 -50 -155 -46 -206 3 -38
5 -39 42 -42 22 -2 59 4 84 14 36 13 48 25 63 59 27 60 46 181 33 203 -14 22
-68 25 -119 7z"/>
<path d="M3570 1142 c-38 -38 -41 -82 -7 -82 32 0 59 31 60 71 3 43 -17 47
-53 11z"/>
<path d="M624 1125 c-10 -25 5 -81 25 -100 29 -26 55 -16 59 23 3 25 -3 39
-27 62 -33 33 -49 37 -57 15z"/>
<path d="M3426 1119 c-52 -41 -58 -109 -11 -109 31 0 57 39 59 87 1 44 -12 50
-48 22z"/>
<path d="M287 1033 c11 -32 47 -77 51 -65 4 14 -36 82 -49 82 -4 0 -6 -8 -2
-17z"/>
<path d="M1935 1025 c-22 -21 -25 -33 -25 -103 0 -143 23 -167 155 -160 110 5
120 18 120 149 0 132 -7 139 -137 139 -81 0 -91 -2 -113 -25z"/>
<path d="M3782 1020 c-20 -32 -28 -60 -18 -60 10 0 47 71 43 83 -2 7 -13 -3
-25 -23z"/>
<path d="M1165 1006 c-15 -22 -15 -27 -1 -55 18 -35 44 -51 79 -51 32 0 40 22
27 71 -17 61 -76 80 -105 35z"/>
<path d="M2844 1005 c-9 -14 -17 -42 -18 -63 -1 -34 1 -37 30 -40 57 -6 109
79 72 116 -21 21 -66 14 -84 -13z"/>
<path d="M370 982 c0 -26 38 -82 55 -82 19 0 19 3 -5 49 -21 43 -50 61 -50 33z"/>
<path d="M486 991 c-8 -12 32 -139 55 -177 23 -38 117 -84 129 -63 9 13 -22
135 -46 181 -22 43 -122 85 -138 59z"/>
<path d="M1399 986 c-34 -16 -36 -50 -5 -81 21 -21 34 -26 69 -23 39 3 42 5
45 33 2 17 -3 38 -10 48 -19 25 -71 37 -99 23z"/>
<path d="M2639 986 c-71 -23 -74 -106 -3 -106 45 0 73 15 84 46 20 51 -19 80
-81 60z"/>
<path d="M3534 986 c-17 -8 -40 -25 -51 -40 -24 -30 -68 -185 -56 -196 11 -12
80 14 108 40 30 28 63 106 72 165 5 43 4 45 -18 45 -13 -1 -38 -7 -55 -14z"/>
<path d="M3698 983 c-19 -22 -38 -58 -38 -72 0 -20 27 -11 43 13 35 53 31 100
-5 59z"/>
<path d="M1633 969 c-18 -18 -16 -70 3 -97 17 -25 69 -30 98 -9 24 18 24 64
-1 88 -24 25 -84 35 -100 18z"/>
<path d="M2369 951 c-34 -35 -36 -54 -9 -81 23 -23 82 -27 99 -6 19 22 25 84
11 101 -21 25 -68 18 -101 -14z"/>
<path d="M379 877 c17 -25 36 -49 43 -53 6 -4 -3 14 -21 39 -17 25 -36 49 -43
53 -6 4 3 -14 21 -39z"/>
<path d="M763 853 c-18 -7 -16 -44 5 -69 24 -30 62 -48 74 -36 15 15 -9 78
-35 97 -23 16 -25 16 -44 8z"/>
<path d="M3281 839 c-24 -26 -37 -77 -23 -91 14 -14 55 12 79 48 31 47 -17 85
-56 43z"/>
<path d="M927 803 c-28 -27 24 -93 73 -93 26 0 30 4 30 25 0 47 -75 96 -103
68z"/>
<path d="M1361 796 c-17 -20 -9 -117 13 -170 20 -48 53 -66 133 -73 92 -8 108
6 99 86 -16 138 -36 159 -160 168 -59 5 -74 3 -85 -11z"/>
<path d="M2575 797 c-50 -15 -73 -57 -82 -149 -9 -97 21 -114 146 -87 66 14
86 40 101 130 18 103 8 119 -67 118 -32 0 -76 -6 -98 -12z"/>
<path d="M3096 788 c-14 -13 -27 -34 -28 -48 -3 -22 2 -25 29 -28 66 -6 116
89 52 96 -17 2 -36 -5 -53 -20z"/>
<path d="M1118 768 c-9 -24 13 -78 38 -94 20 -14 30 -15 49 -6 41 19 28 70
-25 97 -35 18 -56 19 -62 3z"/>
<path d="M2901 754 c-54 -45 -29 -108 33 -84 30 11 46 38 46 79 0 26 -4 31
-24 31 -14 0 -38 -12 -55 -26z"/>
<path d="M500 761 c0 -15 69 -89 70 -75 0 16 -43 77 -57 82 -7 2 -13 -1 -13
-7z"/>
<path d="M3566 754 c-23 -22 -39 -55 -31 -62 7 -8 65 53 65 68 0 15 -17 12
-34 -6z"/>
<path d="M610 698 c1 -29 68 -86 83 -71 9 8 -12 45 -37 65 -25 21 -46 23 -46
6z"/>
<path d="M1785 700 c-62 -24 -54 -81 14 -101 32 -10 44 -9 56 1 23 19 19 76
-7 94 -25 18 -34 19 -63 6z"/>
<path d="M2250 692 c-26 -21 -31 -79 -8 -94 18 -12 68 -1 90 19 54 48 -25 121
-82 75z"/>
<path d="M3429 681 c-29 -30 -39 -61 -18 -61 14 0 79 65 79 79 0 21 -31 11
-61 -18z"/>
<path d="M1998 679 c-22 -13 -23 -52 -2 -70 9 -7 33 -14 54 -14 21 0 45 7 54
14 22 18 20 58 -3 71 -25 13 -81 13 -103 -1z"/>
<path d="M750 650 c0 -23 32 -72 53 -79 46 -18 51 17 8 60 -29 29 -61 39 -61
19z"/>
<path d="M925 650 c-4 -6 3 -42 14 -80 25 -83 57 -113 136 -131 77 -17 83 -9
60 77 -23 85 -46 111 -115 129 -66 18 -87 19 -95 5z"/>
<path d="M3075 645 c-29 -8 -59 -24 -72 -39 -25 -29 -57 -125 -51 -154 5 -23
63 -20 123 7 51 23 83 74 92 152 6 47 5 49 -18 48 -13 0 -46 -6 -74 -14z"/>
<path d="M3291 634 c-36 -30 -41 -64 -11 -64 20 0 60 32 60 49 0 5 3 16 6 25
10 25 -20 19 -55 -10z"/>
<path d="M3499 633 c-13 -16 -12 -17 4 -4 16 13 21 21 13 21 -2 0 -10 -8 -17
-17z"/>
<path d="M650 588 c0 -17 123 -134 162 -154 34 -18 34 -19 -19 62 -22 34 -49
59 -82 77 -55 31 -61 32 -61 15z"/>
<path d="M3388 575 c-33 -18 -59 -43 -89 -86 -22 -33 -39 -62 -36 -65 12 -12
187 143 187 167 0 13 -10 11 -62 -16z"/>
<path d="M1253 514 c-3 -9 -2 -24 4 -33 12 -21 80 -54 93 -46 15 9 12 47 -6
73 -19 27 -81 31 -91 6z"/>
<path d="M1946 514 c-22 -21 -22 -146 -1 -168 21 -20 75 -30 137 -24 70 7 88
30 88 113 0 88 -9 95 -120 95 -67 0 -92 -4 -104 -16z"/>
<path d="M2757 512 c-17 -19 -23 -67 -9 -75 16 -9 73 15 88 38 13 20 14 28 4
40 -17 21 -63 19 -83 -3z"/>
<path d="M1463 494 c-19 -8 -16 -39 7 -59 26 -24 89 -25 104 -3 8 14 7 22 -10
38 -20 21 -78 34 -101 24z"/>
<path d="M2561 488 c-38 -20 -49 -44 -29 -64 35 -35 137 14 112 54 -14 22 -52
26 -83 10z"/>
<path d="M1677 473 c-13 -12 -7 -51 9 -67 18 -19 75 -21 92 -4 19 19 14 45
-10 62 -23 16 -79 22 -91 9z"/>
<path d="M2332 464 c-42 -29 -22 -74 35 -74 38 0 69 36 58 70 -8 25 -60 28
-93 4z"/>
<path d="M899 431 c11 -20 54 -51 71 -51 18 0 11 26 -13 48 -13 12 -33 22 -45
22 -19 0 -21 -3 -13 -19z"/>
<path d="M3152 443 c-7 -3 -19 -18 -27 -34 -19 -36 -6 -38 43 -9 49 30 37 64
-16 43z"/>
<path d="M1050 387 c0 -21 33 -46 68 -53 44 -9 43 19 0 46 -38 23 -68 26 -68
7z"/>
<path d="M3000 393 c-24 -9 -50 -35 -50 -50 0 -19 30 -16 68 7 50 31 37 63
-18 43z"/>
<path d="M1441 356 c-10 -12 -10 -25 4 -71 14 -48 21 -58 50 -71 19 -8 63 -15
97 -17 l63 -2 3 37 c4 47 -21 106 -51 117 -12 5 -52 12 -88 16 -52 6 -67 4
-78 -9z"/>
<path d="M2530 359 c-56 -11 -78 -33 -88 -91 -14 -70 -3 -82 70 -74 33 4 71
11 84 16 36 14 65 68 62 115 -3 39 -4 40 -43 42 -22 1 -60 -3 -85 -8z"/>
<path d="M1224 344 c3 -9 6 -20 6 -25 0 -15 66 -40 85 -33 9 4 14 13 11 21 -3
8 -6 16 -6 19 0 8 -60 34 -81 34 -15 0 -19 -4 -15 -16z"/>
<path d="M2803 340 c-51 -30 -41 -58 17 -50 23 3 50 31 50 52 0 24 -26 23 -67
-2z"/>
<path d="M1069 292 c15 -29 43 -49 111 -81 100 -48 116 -39 53 27 -26 28 -55
45 -92 56 -72 21 -84 21 -72 -2z"/>
<path d="M2946 291 c-60 -21 -146 -111 -106 -111 23 0 141 60 165 84 48 48 27
57 -59 27z"/>
<path d="M1799 271 c-20 -16 -21 -21 -10 -35 18 -21 77 -31 96 -16 20 17 19
26 -5 50 -25 25 -51 25 -81 1z"/>
<path d="M2220 272 c-39 -32 -9 -71 44 -58 14 3 32 13 41 22 14 14 14 19 3 30
-24 24 -63 27 -88 6z"/>
<path d="M2013 270 c-31 -13 -30 -48 1 -56 55 -14 118 18 90 46 -15 15 -66 21
-91 10z"/>
<path d="M1360 186 c0 -12 19 -22 73 -40 25 -8 22 20 -5 38 -28 20 -68 21 -68
2z"/>
<path d="M2673 188 c-34 -17 -37 -38 -5 -38 29 0 72 24 72 41 0 12 -39 10 -67
-3z"/>
<path d="M1956 154 c-18 -18 -20 -47 -6 -75 9 -17 22 -19 101 -19 87 0 90 1
100 26 10 28 3 64 -15 76 -6 4 -46 8 -88 8 -56 0 -81 -4 -92 -16z"/>
<path d="M1530 150 c0 -15 36 -30 74 -30 39 0 47 13 17 30 -25 13 -91 13 -91
0z"/>
<path d="M2478 149 c-27 -15 -21 -29 11 -29 37 0 81 16 81 30 0 13 -70 13 -92
-1z"/>
<path d="M1726 141 c-20 -31 44 -62 83 -41 28 15 27 19 -14 36 -40 16 -61 18
-69 5z"/>
<path d="M2303 135 c-41 -18 -42 -31 -3 -40 48 -11 105 33 64 49 -21 8 -24 8
-61 -9z"/>
<path d="M2700 140 c-8 -5 -10 -10 -5 -10 6 0 17 5 25 10 8 5 11 10 5 10 -5 0
-17 -5 -25 -10z"/>
<path d="M1421 126 c10 -9 69 -36 69 -32 0 6 -55 36 -66 36 -4 0 -5 -2 -3 -4z"/>
<path d="M2640 115 c-14 -8 -20 -14 -15 -14 6 0 21 6 35 14 14 8 21 14 15 14
-5 0 -21 -6 -35 -14z"/>
<path d="M1524 91 c5 -7 84 -29 176 -47 l25 -5 -20 20 c-28 28 -197 58 -181
32z"/>
<path d="M2480 93 c-48 -8 -88 -24 -93 -37 -4 -9 1 -13 11 -10 122 24 172 37
172 45 0 9 -42 10 -90 2z"/>
<path d="M1850 30 c36 -12 60 -12 60 0 0 6 -19 10 -42 9 -37 -1 -39 -2 -18 -9z"/>
<path d="M2010 30 c-11 -7 1 -10 40 -10 39 0 51 3 40 10 -19 12 -61 12 -80 0z"/>
<path d="M2180 30 c0 -12 34 -12 70 0 20 7 16 8 -22 9 -27 1 -48 -3 -48 -9z"/>
</g>
</svg>
